<svg width="256" height="256" viewBox="0 0 256 256" fill="none" xmlns="http://www.w3.org/2000/svg">
  <title>Concept 4: Cost Optimization Chart</title>
  <defs>
    <radialGradient id="bg" cx="50%" cy="50%" r="70%">
      <stop offset="0%" stop-color="#0F172A"/>
      <stop offset="100%" stop-color="#020617"/>
    </radialGradient>
    <filter id="shadow" x="-10%" y="-10%" width="120%" height="120%">
      <feDropShadow dx="0" dy="8" stdDeviation="10" flood-color="#000000" flood-opacity="0.4"/>
    </filter>
  </defs>
  <rect x="16" y="16" width="224" height="224" rx="56" fill="url(#bg)" stroke="#334155" stroke-width="2"/>
  <g transform="translate(60, 160)" filter="url(#shadow)">
    <path d="M-15 0 L0 10 L15 0 L0 -10 Z" fill="#0284C7"/>
    <path d="M-15 0 V-40 L0 -30 V10 Z" fill="#0369A1"/>
    <path d="M15 0 V-40 L0 -30 V10 Z" fill="#075985"/>
    <path d="M-15 -40 L0 -30 L15 -40 L0 -50 Z" fill="#38BDF8"/>
    <circle cx="0" cy="-68" r="8" fill="#EF4444"/>
    <text x="0" y="-65" fill="#FFFFFF" font-family="system-ui, sans-serif" font-size="10" font-weight="900" text-anchor="middle">1</text>
  </g>
  <g transform="translate(128, 160)" filter="url(#shadow)">
    <path d="M-15 0 L0 10 L15 0 L0 -10 Z" fill="#0284C7"/>
    <path d="M-15 0 V-25 L0 -15 V10 Z" fill="#0369A1"/>
    <path d="M15 0 V-25 L0 -15 V10 Z" fill="#075985"/>
    <path d="M-15 -25 L0 -15 L15 -25 L0 -35 Z" fill="#38BDF8"/>
    <circle cx="0" cy="-53" r="8" fill="#F59E0B"/>
    <text x="0" y="-50" fill="#FFFFFF" font-family="system-ui, sans-serif" font-size="10" font-weight="900" text-anchor="middle">5</text>
  </g>
  <g transform="translate(196, 160)" filter="url(#shadow)">
    <path d="M-15 0 L0 10 L15 0 L0 -10 Z" fill="#10B981"/>
    <path d="M-15 0 V-12 L0 -2 V10 Z" fill="#059669"/>
    <path d="M15 0 V-12 L0 -2 V10 Z" fill="#047857"/>
    <path d="M-15 -12 L0 -2 L15 -12 L0 -22 Z" fill="#34D399"/>
    <circle cx="0" cy="-40" r="8" fill="#10B981"/>
    <text x="0" y="-37" fill="#FFFFFF" font-family="system-ui, sans-serif" font-size="9" font-weight="900" text-anchor="middle">50</text>
  </g>
  <path d="M60 80 Q128 105 196 122" fill="none" stroke="#10B981" stroke-width="4" stroke-dasharray="8 4" stroke-linecap="round"/>
  <path d="M196 122 L186 116 M196 122 L188 129" stroke="#10B981" stroke-width="4" stroke-linecap="round"/>
</svg>